<svg width="280" height="190" viewBox="0 0 280 190" fill="none" xmlns="http://www.w3.org/2000/svg">
<path fill-rule="evenodd" clip-rule="evenodd" d="M280 8.32442C280 8.32442 272.802 15.1359 259.163 9.83739C245.524 4.54097 242.492 4.54097 236.051 8.32442C229.609 12.1079 229.609 14.7561 225.442 14.7561C221.273 14.7561 214.833 1.89276 209.908 1.89276C204.983 1.89276 179.598 3.02801 173.914 0C173.914 0 184.901 12.1079 197.025 12.1079C209.149 12.1079 215.97 17.0266 214.455 20.81C212.94 24.5935 209.307 24.3071 209.307 24.3071C209.307 24.3071 214.503 33.1711 223.597 32.4156C232.689 31.6581 234.491 28.4952 234.491 28.4952C234.491 28.4952 228.094 23.4603 233.4 19.2971C238.703 15.1359 240.717 13.8035 246.054 16.3458C251.39 18.8903 257.211 20.5859 265.58 18.1639C273.947 15.7398 278.172 11.5662 280 8.32442" fill="#D5C2B0"/>
<path fill-rule="evenodd" clip-rule="evenodd" d="M62.7545 175.723C62.7545 175.723 58.4963 179.751 50.4268 176.617C42.3593 173.485 40.5659 173.485 36.7566 175.723C32.9452 177.96 32.9452 179.527 30.4805 179.527C28.0158 179.527 24.2044 171.918 21.2908 171.918C18.3772 171.918 3.36248 172.589 0 170.798C0 170.798 6.50051 177.96 13.6723 177.96C20.844 177.96 24.8778 180.87 23.9821 183.109C23.0843 185.346 20.9355 185.176 20.9355 185.176C20.9355 185.176 24.0091 190.42 29.3895 189.974C34.7678 189.526 35.8339 187.654 35.8339 187.654C35.8339 187.654 32.0495 184.676 35.1876 182.214C38.3256 179.751 39.5164 178.964 42.6731 180.467C45.8299 181.972 49.2734 182.976 54.2236 181.542C59.1738 180.11 61.6717 177.64 62.7545 175.723" fill="#D5C2B0"/>
<path fill-rule="evenodd" clip-rule="evenodd" d="M198.924 72.5031C198.924 72.5031 193.785 77.3658 184.047 73.5844C174.31 69.801 172.147 69.801 167.548 72.5031C162.949 75.2053 162.949 77.096 159.975 77.096C156.999 77.096 152.4 67.9103 148.884 67.9103C145.368 67.9103 127.246 68.7218 123.189 66.5613C123.189 66.5613 131.032 75.2053 139.688 75.2053C148.344 75.2053 153.213 78.7169 152.13 81.417C151.049 84.1191 148.456 83.9137 148.456 83.9137C148.456 83.9137 152.165 90.2416 158.658 89.702C165.148 89.1624 166.434 86.9043 166.434 86.9043C166.434 86.9043 161.868 83.3077 165.655 80.3378C169.441 77.3658 170.879 76.4153 174.689 78.2292C178.498 80.0451 182.654 81.2572 188.629 79.5263C194.604 77.7975 197.617 74.8172 198.924 72.5031" fill="#D5C2B0"/>
</svg>
